<mxfile host="app.diagrams.net" agent="Mozilla/5.0 (Windows NT 10.0; Win64; x64; rv:132.0) Gecko/20100101 Firefox/132.0" version="24.8.6">
  <diagram id="C5RBs43oDa-KdzZeNtuy" name="Page-1">
    <mxGraphModel dx="1366" dy="1994" grid="1" gridSize="10" guides="1" tooltips="1" connect="1" arrows="1" fold="1" page="1" pageScale="1" pageWidth="827" pageHeight="1169" math="0" shadow="0">
      <root>
        <mxCell id="WIyWlLk6GJQsqaUBKTNV-0" />
        <mxCell id="WIyWlLk6GJQsqaUBKTNV-1" parent="WIyWlLk6GJQsqaUBKTNV-0" />
        <mxCell id="bVHgUO8VpeUaKPs4COCc-0" style="edgeStyle=orthogonalEdgeStyle;rounded=0;orthogonalLoop=1;jettySize=auto;html=1;exitX=1;exitY=0.5;exitDx=0;exitDy=0;entryX=0.5;entryY=0;entryDx=0;entryDy=0;" edge="1" parent="WIyWlLk6GJQsqaUBKTNV-1" source="bVHgUO8VpeUaKPs4COCc-4" target="bVHgUO8VpeUaKPs4COCc-4">
          <mxGeometry relative="1" as="geometry">
            <mxPoint x="499.94" y="-960" as="targetPoint" />
            <mxPoint x="474.94" y="-950" as="sourcePoint" />
            <Array as="points">
              <mxPoint x="469.94" y="-964" />
              <mxPoint x="469.94" y="-1030" />
              <mxPoint x="399.94" y="-1030" />
            </Array>
          </mxGeometry>
        </mxCell>
        <mxCell id="bVHgUO8VpeUaKPs4COCc-1" value="&lt;div&gt;Nein&lt;/div&gt;&lt;div&gt;(HIGH)&lt;br&gt;&lt;/div&gt;" style="edgeLabel;html=1;align=center;verticalAlign=middle;resizable=0;points=[];" vertex="1" connectable="0" parent="bVHgUO8VpeUaKPs4COCc-0">
          <mxGeometry x="-0.8209" y="-8" relative="1" as="geometry">
            <mxPoint x="27" y="-48" as="offset" />
          </mxGeometry>
        </mxCell>
        <mxCell id="bVHgUO8VpeUaKPs4COCc-57" style="edgeStyle=orthogonalEdgeStyle;rounded=0;orthogonalLoop=1;jettySize=auto;html=1;exitX=0.5;exitY=1;exitDx=0;exitDy=0;entryX=0.5;entryY=0;entryDx=0;entryDy=0;" edge="1" parent="WIyWlLk6GJQsqaUBKTNV-1" source="bVHgUO8VpeUaKPs4COCc-4" target="bVHgUO8VpeUaKPs4COCc-12">
          <mxGeometry relative="1" as="geometry" />
        </mxCell>
        <mxCell id="bVHgUO8VpeUaKPs4COCc-59" value="&lt;div&gt;JA&lt;/div&gt;&lt;div&gt;(LOW)&lt;br&gt;&lt;/div&gt;" style="edgeLabel;html=1;align=center;verticalAlign=middle;resizable=0;points=[];" vertex="1" connectable="0" parent="bVHgUO8VpeUaKPs4COCc-57">
          <mxGeometry x="-0.5381" y="1" relative="1" as="geometry">
            <mxPoint x="-21" as="offset" />
          </mxGeometry>
        </mxCell>
        <mxCell id="bVHgUO8VpeUaKPs4COCc-4" value="Taster gedrückt?" style="rhombus;whiteSpace=wrap;html=1;shadow=0;fontFamily=Helvetica;fontSize=12;align=center;strokeWidth=1;spacing=6;spacingTop=-4;" vertex="1" parent="WIyWlLk6GJQsqaUBKTNV-1">
          <mxGeometry x="349.94" y="-1004" width="100" height="80" as="geometry" />
        </mxCell>
        <mxCell id="bVHgUO8VpeUaKPs4COCc-6" value="LED toggeln" style="rounded=1;whiteSpace=wrap;html=1;fontSize=12;glass=0;strokeWidth=1;shadow=0;" vertex="1" parent="WIyWlLk6GJQsqaUBKTNV-1">
          <mxGeometry x="339.94" y="-740" width="120" height="40" as="geometry" />
        </mxCell>
        <mxCell id="bVHgUO8VpeUaKPs4COCc-7" style="edgeStyle=orthogonalEdgeStyle;rounded=0;orthogonalLoop=1;jettySize=auto;html=1;exitX=0.5;exitY=1;exitDx=0;exitDy=0;entryX=0.5;entryY=0;entryDx=0;entryDy=0;" edge="1" parent="WIyWlLk6GJQsqaUBKTNV-1" source="bVHgUO8VpeUaKPs4COCc-8" target="bVHgUO8VpeUaKPs4COCc-4">
          <mxGeometry relative="1" as="geometry">
            <mxPoint x="399.94" y="-1094" as="targetPoint" />
          </mxGeometry>
        </mxCell>
        <mxCell id="bVHgUO8VpeUaKPs4COCc-8" value="&lt;div&gt;Start&lt;/div&gt;" style="ellipse;whiteSpace=wrap;html=1;" vertex="1" parent="WIyWlLk6GJQsqaUBKTNV-1">
          <mxGeometry x="374.94" y="-1100" width="50" height="50" as="geometry" />
        </mxCell>
        <mxCell id="bVHgUO8VpeUaKPs4COCc-9" style="edgeStyle=orthogonalEdgeStyle;rounded=0;orthogonalLoop=1;jettySize=auto;html=1;exitX=0.5;exitY=1;exitDx=0;exitDy=0;entryX=0;entryY=0.5;entryDx=0;entryDy=0;" edge="1" parent="WIyWlLk6GJQsqaUBKTNV-1" source="bVHgUO8VpeUaKPs4COCc-6" target="bVHgUO8VpeUaKPs4COCc-4">
          <mxGeometry relative="1" as="geometry">
            <Array as="points">
              <mxPoint x="400" y="-680" />
              <mxPoint x="300" y="-680" />
              <mxPoint x="300" y="-964" />
            </Array>
            <mxPoint x="399.94000000000005" y="-750" as="sourcePoint" />
          </mxGeometry>
        </mxCell>
        <mxCell id="bVHgUO8VpeUaKPs4COCc-11" value="&lt;b&gt;LED toggeln mit jedem Tastendruck&lt;/b&gt;" style="text;html=1;align=center;verticalAlign=middle;resizable=0;points=[];autosize=1;strokeColor=none;fillColor=none;" vertex="1" parent="WIyWlLk6GJQsqaUBKTNV-1">
          <mxGeometry x="440" y="-1090" width="220" height="30" as="geometry" />
        </mxCell>
        <mxCell id="bVHgUO8VpeUaKPs4COCc-58" style="edgeStyle=orthogonalEdgeStyle;rounded=0;orthogonalLoop=1;jettySize=auto;html=1;exitX=0.5;exitY=1;exitDx=0;exitDy=0;entryX=0.5;entryY=0;entryDx=0;entryDy=0;" edge="1" parent="WIyWlLk6GJQsqaUBKTNV-1" source="bVHgUO8VpeUaKPs4COCc-12" target="bVHgUO8VpeUaKPs4COCc-6">
          <mxGeometry relative="1" as="geometry" />
        </mxCell>
        <mxCell id="bVHgUO8VpeUaKPs4COCc-60" value="&lt;div&gt;JA&lt;/div&gt;&lt;div&gt;(HIGH)&lt;br&gt;&lt;/div&gt;" style="edgeLabel;html=1;align=center;verticalAlign=middle;resizable=0;points=[];" vertex="1" connectable="0" parent="bVHgUO8VpeUaKPs4COCc-58">
          <mxGeometry x="-0.3553" y="1" relative="1" as="geometry">
            <mxPoint x="-21" as="offset" />
          </mxGeometry>
        </mxCell>
        <mxCell id="bVHgUO8VpeUaKPs4COCc-12" value="Taster losgelassen?" style="rhombus;whiteSpace=wrap;html=1;shadow=0;fontFamily=Helvetica;fontSize=12;align=center;strokeWidth=1;spacing=6;spacingTop=-4;" vertex="1" parent="WIyWlLk6GJQsqaUBKTNV-1">
          <mxGeometry x="349.94" y="-870" width="100" height="80" as="geometry" />
        </mxCell>
        <mxCell id="bVHgUO8VpeUaKPs4COCc-13" style="edgeStyle=orthogonalEdgeStyle;rounded=0;orthogonalLoop=1;jettySize=auto;html=1;exitX=1;exitY=0.5;exitDx=0;exitDy=0;entryX=0.5;entryY=0;entryDx=0;entryDy=0;" edge="1" parent="WIyWlLk6GJQsqaUBKTNV-1" source="bVHgUO8VpeUaKPs4COCc-12" target="bVHgUO8VpeUaKPs4COCc-12">
          <mxGeometry relative="1" as="geometry">
            <Array as="points">
              <mxPoint x="470" y="-830" />
              <mxPoint x="470" y="-890" />
              <mxPoint x="400" y="-890" />
            </Array>
          </mxGeometry>
        </mxCell>
        <mxCell id="bVHgUO8VpeUaKPs4COCc-14" value="&lt;div&gt;NEIN&lt;/div&gt;&lt;div&gt;(LOW)&lt;/div&gt;" style="edgeLabel;html=1;align=center;verticalAlign=middle;resizable=0;points=[];" vertex="1" connectable="0" parent="bVHgUO8VpeUaKPs4COCc-13">
          <mxGeometry x="-0.3926" y="4" relative="1" as="geometry">
            <mxPoint x="24" as="offset" />
          </mxGeometry>
        </mxCell>
        <mxCell id="bVHgUO8VpeUaKPs4COCc-16" style="edgeStyle=orthogonalEdgeStyle;rounded=0;orthogonalLoop=1;jettySize=auto;html=1;exitX=1;exitY=0.5;exitDx=0;exitDy=0;entryX=0.5;entryY=0;entryDx=0;entryDy=0;" edge="1" source="bVHgUO8VpeUaKPs4COCc-21" target="bVHgUO8VpeUaKPs4COCc-21" parent="WIyWlLk6GJQsqaUBKTNV-1">
          <mxGeometry relative="1" as="geometry">
            <mxPoint x="499.94" y="-490" as="targetPoint" />
            <mxPoint x="474.94" y="-480" as="sourcePoint" />
            <Array as="points">
              <mxPoint x="469.94" y="-494" />
              <mxPoint x="469.94" y="-560" />
              <mxPoint x="399.94" y="-560" />
            </Array>
          </mxGeometry>
        </mxCell>
        <mxCell id="bVHgUO8VpeUaKPs4COCc-17" value="&lt;div&gt;Nein&lt;/div&gt;&lt;div&gt;(HIGH)&lt;br&gt;&lt;/div&gt;" style="edgeLabel;html=1;align=center;verticalAlign=middle;resizable=0;points=[];" vertex="1" connectable="0" parent="bVHgUO8VpeUaKPs4COCc-16">
          <mxGeometry x="-0.8209" y="-8" relative="1" as="geometry">
            <mxPoint x="27" y="-48" as="offset" />
          </mxGeometry>
        </mxCell>
        <mxCell id="bVHgUO8VpeUaKPs4COCc-18" style="edgeStyle=orthogonalEdgeStyle;rounded=0;orthogonalLoop=1;jettySize=auto;html=1;exitX=0.5;exitY=1;exitDx=0;exitDy=0;entryX=0.5;entryY=0;entryDx=0;entryDy=0;" edge="1" source="bVHgUO8VpeUaKPs4COCc-27" target="bVHgUO8VpeUaKPs4COCc-30" parent="WIyWlLk6GJQsqaUBKTNV-1">
          <mxGeometry relative="1" as="geometry" />
        </mxCell>
        <mxCell id="bVHgUO8VpeUaKPs4COCc-20" value="&lt;div&gt;JA&lt;/div&gt;&lt;div&gt;(HIGH)&lt;br&gt;&lt;/div&gt;" style="edgeLabel;html=1;align=center;verticalAlign=middle;resizable=0;points=[];" vertex="1" connectable="0" parent="bVHgUO8VpeUaKPs4COCc-18">
          <mxGeometry x="0.629" y="2" relative="1" as="geometry">
            <mxPoint x="-27" y="-15" as="offset" />
          </mxGeometry>
        </mxCell>
        <mxCell id="bVHgUO8VpeUaKPs4COCc-32" style="edgeStyle=orthogonalEdgeStyle;rounded=0;orthogonalLoop=1;jettySize=auto;html=1;exitX=0.5;exitY=1;exitDx=0;exitDy=0;entryX=0.5;entryY=0;entryDx=0;entryDy=0;" edge="1" parent="WIyWlLk6GJQsqaUBKTNV-1" source="bVHgUO8VpeUaKPs4COCc-21" target="bVHgUO8VpeUaKPs4COCc-27">
          <mxGeometry relative="1" as="geometry" />
        </mxCell>
        <mxCell id="bVHgUO8VpeUaKPs4COCc-33" value="&lt;div&gt;JA&lt;/div&gt;&lt;div&gt;(LOW)&lt;/div&gt;" style="edgeLabel;html=1;align=center;verticalAlign=middle;resizable=0;points=[];" vertex="1" connectable="0" parent="bVHgUO8VpeUaKPs4COCc-32">
          <mxGeometry x="-0.5642" y="-1" relative="1" as="geometry">
            <mxPoint x="-24" as="offset" />
          </mxGeometry>
        </mxCell>
        <mxCell id="bVHgUO8VpeUaKPs4COCc-21" value="Taster gedrückt?" style="rhombus;whiteSpace=wrap;html=1;shadow=0;fontFamily=Helvetica;fontSize=12;align=center;strokeWidth=1;spacing=6;spacingTop=-4;" vertex="1" parent="WIyWlLk6GJQsqaUBKTNV-1">
          <mxGeometry x="349.94" y="-534" width="100" height="80" as="geometry" />
        </mxCell>
        <mxCell id="bVHgUO8VpeUaKPs4COCc-22" value="LED ausschalten" style="rounded=1;whiteSpace=wrap;html=1;fontSize=12;glass=0;strokeWidth=1;shadow=0;" vertex="1" parent="WIyWlLk6GJQsqaUBKTNV-1">
          <mxGeometry x="260" y="-200" width="120" height="40" as="geometry" />
        </mxCell>
        <mxCell id="bVHgUO8VpeUaKPs4COCc-23" style="edgeStyle=orthogonalEdgeStyle;rounded=0;orthogonalLoop=1;jettySize=auto;html=1;exitX=0.5;exitY=1;exitDx=0;exitDy=0;entryX=0.5;entryY=0;entryDx=0;entryDy=0;" edge="1" source="bVHgUO8VpeUaKPs4COCc-24" target="bVHgUO8VpeUaKPs4COCc-21" parent="WIyWlLk6GJQsqaUBKTNV-1">
          <mxGeometry relative="1" as="geometry">
            <mxPoint x="399.94" y="-624" as="targetPoint" />
          </mxGeometry>
        </mxCell>
        <mxCell id="bVHgUO8VpeUaKPs4COCc-24" value="&lt;div&gt;Start&lt;/div&gt;" style="ellipse;whiteSpace=wrap;html=1;" vertex="1" parent="WIyWlLk6GJQsqaUBKTNV-1">
          <mxGeometry x="374.94" y="-630" width="50" height="50" as="geometry" />
        </mxCell>
        <mxCell id="bVHgUO8VpeUaKPs4COCc-25" style="edgeStyle=orthogonalEdgeStyle;rounded=0;orthogonalLoop=1;jettySize=auto;html=1;entryX=0;entryY=0.5;entryDx=0;entryDy=0;exitX=0.5;exitY=1;exitDx=0;exitDy=0;" edge="1" source="bVHgUO8VpeUaKPs4COCc-22" target="bVHgUO8VpeUaKPs4COCc-21" parent="WIyWlLk6GJQsqaUBKTNV-1">
          <mxGeometry relative="1" as="geometry">
            <Array as="points">
              <mxPoint x="320" y="-130" />
              <mxPoint x="230" y="-130" />
              <mxPoint x="230" y="-494" />
            </Array>
            <mxPoint x="230" y="-120" as="sourcePoint" />
          </mxGeometry>
        </mxCell>
        <mxCell id="bVHgUO8VpeUaKPs4COCc-26" value="&lt;b&gt;LED toggeln mit jedem Tastendruck&lt;/b&gt;" style="text;html=1;align=center;verticalAlign=middle;resizable=0;points=[];autosize=1;strokeColor=none;fillColor=none;" vertex="1" parent="WIyWlLk6GJQsqaUBKTNV-1">
          <mxGeometry x="440" y="-620" width="220" height="30" as="geometry" />
        </mxCell>
        <mxCell id="bVHgUO8VpeUaKPs4COCc-27" value="Taster losgelassen?" style="rhombus;whiteSpace=wrap;html=1;shadow=0;fontFamily=Helvetica;fontSize=12;align=center;strokeWidth=1;spacing=6;spacingTop=-4;" vertex="1" parent="WIyWlLk6GJQsqaUBKTNV-1">
          <mxGeometry x="339.88" y="-400" width="120.12" height="80" as="geometry" />
        </mxCell>
        <mxCell id="bVHgUO8VpeUaKPs4COCc-28" style="edgeStyle=orthogonalEdgeStyle;rounded=0;orthogonalLoop=1;jettySize=auto;html=1;exitX=1;exitY=0.5;exitDx=0;exitDy=0;entryX=0.5;entryY=0;entryDx=0;entryDy=0;" edge="1" source="bVHgUO8VpeUaKPs4COCc-27" target="bVHgUO8VpeUaKPs4COCc-27" parent="WIyWlLk6GJQsqaUBKTNV-1">
          <mxGeometry relative="1" as="geometry">
            <Array as="points">
              <mxPoint x="470" y="-360" />
              <mxPoint x="470" y="-420" />
              <mxPoint x="400" y="-420" />
            </Array>
          </mxGeometry>
        </mxCell>
        <mxCell id="bVHgUO8VpeUaKPs4COCc-29" value="&lt;div&gt;NEIN&lt;/div&gt;&lt;div&gt;(LOW)&lt;/div&gt;" style="edgeLabel;html=1;align=center;verticalAlign=middle;resizable=0;points=[];" vertex="1" connectable="0" parent="bVHgUO8VpeUaKPs4COCc-28">
          <mxGeometry x="-0.3926" y="4" relative="1" as="geometry">
            <mxPoint x="24" y="9" as="offset" />
          </mxGeometry>
        </mxCell>
        <mxCell id="bVHgUO8VpeUaKPs4COCc-34" style="edgeStyle=orthogonalEdgeStyle;rounded=0;orthogonalLoop=1;jettySize=auto;html=1;exitX=1;exitY=0.5;exitDx=0;exitDy=0;entryX=0.5;entryY=0;entryDx=0;entryDy=0;" edge="1" parent="WIyWlLk6GJQsqaUBKTNV-1" source="bVHgUO8VpeUaKPs4COCc-30" target="bVHgUO8VpeUaKPs4COCc-31">
          <mxGeometry relative="1" as="geometry">
            <mxPoint x="490" y="-240" as="targetPoint" />
            <Array as="points">
              <mxPoint x="480" y="-250" />
            </Array>
          </mxGeometry>
        </mxCell>
        <mxCell id="bVHgUO8VpeUaKPs4COCc-38" value="NEIN" style="edgeLabel;html=1;align=center;verticalAlign=middle;resizable=0;points=[];" vertex="1" connectable="0" parent="bVHgUO8VpeUaKPs4COCc-34">
          <mxGeometry x="-0.7093" y="-1" relative="1" as="geometry">
            <mxPoint y="-11" as="offset" />
          </mxGeometry>
        </mxCell>
        <mxCell id="bVHgUO8VpeUaKPs4COCc-36" style="edgeStyle=orthogonalEdgeStyle;rounded=0;orthogonalLoop=1;jettySize=auto;html=1;exitX=0;exitY=0.5;exitDx=0;exitDy=0;entryX=0.5;entryY=0;entryDx=0;entryDy=0;" edge="1" parent="WIyWlLk6GJQsqaUBKTNV-1" source="bVHgUO8VpeUaKPs4COCc-30" target="bVHgUO8VpeUaKPs4COCc-22">
          <mxGeometry relative="1" as="geometry">
            <Array as="points">
              <mxPoint x="320" y="-250" />
            </Array>
          </mxGeometry>
        </mxCell>
        <mxCell id="bVHgUO8VpeUaKPs4COCc-37" value="JA" style="edgeLabel;html=1;align=center;verticalAlign=middle;resizable=0;points=[];" vertex="1" connectable="0" parent="bVHgUO8VpeUaKPs4COCc-36">
          <mxGeometry x="-0.5756" relative="1" as="geometry">
            <mxPoint x="5" y="-10" as="offset" />
          </mxGeometry>
        </mxCell>
        <mxCell id="bVHgUO8VpeUaKPs4COCc-30" value="&lt;div&gt;LED&lt;/div&gt;&lt;div&gt;eingeschaltet?&lt;/div&gt;" style="rhombus;whiteSpace=wrap;html=1;shadow=0;fontFamily=Helvetica;fontSize=12;align=center;strokeWidth=1;spacing=6;spacingTop=-4;" vertex="1" parent="WIyWlLk6GJQsqaUBKTNV-1">
          <mxGeometry x="339.94" y="-290" width="120.12" height="80" as="geometry" />
        </mxCell>
        <mxCell id="bVHgUO8VpeUaKPs4COCc-39" style="edgeStyle=orthogonalEdgeStyle;rounded=0;orthogonalLoop=1;jettySize=auto;html=1;exitX=0.5;exitY=1;exitDx=0;exitDy=0;entryX=0;entryY=0.5;entryDx=0;entryDy=0;" edge="1" parent="WIyWlLk6GJQsqaUBKTNV-1" source="bVHgUO8VpeUaKPs4COCc-31" target="bVHgUO8VpeUaKPs4COCc-21">
          <mxGeometry relative="1" as="geometry">
            <mxPoint x="299.9999999999999" y="-524.1860465116279" as="targetPoint" />
            <Array as="points">
              <mxPoint x="480" y="-130" />
              <mxPoint x="230" y="-130" />
              <mxPoint x="230" y="-494" />
            </Array>
          </mxGeometry>
        </mxCell>
        <mxCell id="bVHgUO8VpeUaKPs4COCc-31" value="LED einschalten" style="rounded=1;whiteSpace=wrap;html=1;fontSize=12;glass=0;strokeWidth=1;shadow=0;" vertex="1" parent="WIyWlLk6GJQsqaUBKTNV-1">
          <mxGeometry x="419.94" y="-200" width="120" height="40" as="geometry" />
        </mxCell>
        <mxCell id="bVHgUO8VpeUaKPs4COCc-40" style="edgeStyle=orthogonalEdgeStyle;rounded=0;orthogonalLoop=1;jettySize=auto;html=1;exitX=1;exitY=0.5;exitDx=0;exitDy=0;entryX=0.5;entryY=0;entryDx=0;entryDy=0;" edge="1" parent="WIyWlLk6GJQsqaUBKTNV-1" source="bVHgUO8VpeUaKPs4COCc-45" target="bVHgUO8VpeUaKPs4COCc-45">
          <mxGeometry relative="1" as="geometry">
            <mxPoint x="490.02" y="300" as="targetPoint" />
            <mxPoint x="465.02" y="310" as="sourcePoint" />
            <Array as="points">
              <mxPoint x="460.02" y="296" />
              <mxPoint x="460.02" y="230" />
              <mxPoint x="390.02" y="230" />
            </Array>
          </mxGeometry>
        </mxCell>
        <mxCell id="bVHgUO8VpeUaKPs4COCc-41" value="&lt;div&gt;Nein&lt;/div&gt;&lt;div&gt;(HIGH)&lt;br&gt;&lt;/div&gt;" style="edgeLabel;html=1;align=center;verticalAlign=middle;resizable=0;points=[];" vertex="1" connectable="0" parent="bVHgUO8VpeUaKPs4COCc-40">
          <mxGeometry x="-0.8209" y="-8" relative="1" as="geometry">
            <mxPoint x="27" y="-48" as="offset" />
          </mxGeometry>
        </mxCell>
        <mxCell id="bVHgUO8VpeUaKPs4COCc-61" style="edgeStyle=orthogonalEdgeStyle;rounded=0;orthogonalLoop=1;jettySize=auto;html=1;exitX=0.5;exitY=1;exitDx=0;exitDy=0;entryX=0.5;entryY=0;entryDx=0;entryDy=0;" edge="1" parent="WIyWlLk6GJQsqaUBKTNV-1" source="bVHgUO8VpeUaKPs4COCc-45" target="bVHgUO8VpeUaKPs4COCc-51">
          <mxGeometry relative="1" as="geometry" />
        </mxCell>
        <mxCell id="bVHgUO8VpeUaKPs4COCc-62" value="&lt;div&gt;JA&lt;/div&gt;&lt;div&gt;(LOW)&lt;br&gt;&lt;/div&gt;" style="edgeLabel;html=1;align=center;verticalAlign=middle;resizable=0;points=[];" vertex="1" connectable="0" parent="bVHgUO8VpeUaKPs4COCc-61">
          <mxGeometry x="-0.448" y="-1" relative="1" as="geometry">
            <mxPoint x="-19" as="offset" />
          </mxGeometry>
        </mxCell>
        <mxCell id="bVHgUO8VpeUaKPs4COCc-45" value="Taster gedrückt?" style="rhombus;whiteSpace=wrap;html=1;shadow=0;fontFamily=Helvetica;fontSize=12;align=center;strokeWidth=1;spacing=6;spacingTop=-4;" vertex="1" parent="WIyWlLk6GJQsqaUBKTNV-1">
          <mxGeometry x="340.02" y="256" width="100" height="80" as="geometry" />
        </mxCell>
        <mxCell id="bVHgUO8VpeUaKPs4COCc-84" style="edgeStyle=orthogonalEdgeStyle;rounded=0;orthogonalLoop=1;jettySize=auto;html=1;exitX=0.5;exitY=1;exitDx=0;exitDy=0;entryX=0.5;entryY=0;entryDx=0;entryDy=0;" edge="1" parent="WIyWlLk6GJQsqaUBKTNV-1" source="bVHgUO8VpeUaKPs4COCc-46" target="bVHgUO8VpeUaKPs4COCc-82">
          <mxGeometry relative="1" as="geometry" />
        </mxCell>
        <mxCell id="bVHgUO8VpeUaKPs4COCc-46" value="LED toggeln" style="rounded=1;whiteSpace=wrap;html=1;fontSize=12;glass=0;strokeWidth=1;shadow=0;" vertex="1" parent="WIyWlLk6GJQsqaUBKTNV-1">
          <mxGeometry x="330.02" y="710" width="120" height="40" as="geometry" />
        </mxCell>
        <mxCell id="bVHgUO8VpeUaKPs4COCc-47" style="edgeStyle=orthogonalEdgeStyle;rounded=0;orthogonalLoop=1;jettySize=auto;html=1;exitX=0.5;exitY=1;exitDx=0;exitDy=0;entryX=0.5;entryY=0;entryDx=0;entryDy=0;" edge="1" parent="WIyWlLk6GJQsqaUBKTNV-1" source="bVHgUO8VpeUaKPs4COCc-54" target="bVHgUO8VpeUaKPs4COCc-45">
          <mxGeometry relative="1" as="geometry">
            <mxPoint x="390.02" y="166" as="targetPoint" />
            <mxPoint x="390.0200000000001" y="210" as="sourcePoint" />
          </mxGeometry>
        </mxCell>
        <mxCell id="bVHgUO8VpeUaKPs4COCc-55" style="edgeStyle=orthogonalEdgeStyle;rounded=0;orthogonalLoop=1;jettySize=auto;html=1;exitX=0.5;exitY=1;exitDx=0;exitDy=0;entryX=0.5;entryY=0;entryDx=0;entryDy=0;" edge="1" parent="WIyWlLk6GJQsqaUBKTNV-1" source="bVHgUO8VpeUaKPs4COCc-48" target="bVHgUO8VpeUaKPs4COCc-54">
          <mxGeometry relative="1" as="geometry" />
        </mxCell>
        <mxCell id="bVHgUO8VpeUaKPs4COCc-48" value="&lt;div&gt;Start&lt;/div&gt;" style="ellipse;whiteSpace=wrap;html=1;" vertex="1" parent="WIyWlLk6GJQsqaUBKTNV-1">
          <mxGeometry x="365.08" y="90" width="50" height="50" as="geometry" />
        </mxCell>
        <mxCell id="bVHgUO8VpeUaKPs4COCc-50" value="&lt;b&gt;LED blinken ein/ausschalten mit jedem Tastendruck&lt;/b&gt;" style="text;html=1;align=center;verticalAlign=middle;resizable=0;points=[];autosize=1;strokeColor=none;fillColor=none;" vertex="1" parent="WIyWlLk6GJQsqaUBKTNV-1">
          <mxGeometry x="425.2" y="100" width="320" height="30" as="geometry" />
        </mxCell>
        <mxCell id="bVHgUO8VpeUaKPs4COCc-63" style="edgeStyle=orthogonalEdgeStyle;rounded=0;orthogonalLoop=1;jettySize=auto;html=1;exitX=0.5;exitY=1;exitDx=0;exitDy=0;entryX=0.5;entryY=0;entryDx=0;entryDy=0;" edge="1" parent="WIyWlLk6GJQsqaUBKTNV-1" source="bVHgUO8VpeUaKPs4COCc-51" target="bVHgUO8VpeUaKPs4COCc-56">
          <mxGeometry relative="1" as="geometry" />
        </mxCell>
        <mxCell id="bVHgUO8VpeUaKPs4COCc-64" value="&lt;div&gt;JA&lt;/div&gt;&lt;div&gt;(HIGH)&lt;br&gt;&lt;/div&gt;" style="edgeLabel;html=1;align=center;verticalAlign=middle;resizable=0;points=[];" vertex="1" connectable="0" parent="bVHgUO8VpeUaKPs4COCc-63">
          <mxGeometry x="-0.3365" y="-2" relative="1" as="geometry">
            <mxPoint x="-18" as="offset" />
          </mxGeometry>
        </mxCell>
        <mxCell id="bVHgUO8VpeUaKPs4COCc-51" value="Taster losgelassen?" style="rhombus;whiteSpace=wrap;html=1;shadow=0;fontFamily=Helvetica;fontSize=12;align=center;strokeWidth=1;spacing=6;spacingTop=-4;" vertex="1" parent="WIyWlLk6GJQsqaUBKTNV-1">
          <mxGeometry x="340.02" y="390" width="100" height="80" as="geometry" />
        </mxCell>
        <mxCell id="bVHgUO8VpeUaKPs4COCc-52" style="edgeStyle=orthogonalEdgeStyle;rounded=0;orthogonalLoop=1;jettySize=auto;html=1;exitX=1;exitY=0.5;exitDx=0;exitDy=0;entryX=0.5;entryY=0;entryDx=0;entryDy=0;" edge="1" parent="WIyWlLk6GJQsqaUBKTNV-1" source="bVHgUO8VpeUaKPs4COCc-51" target="bVHgUO8VpeUaKPs4COCc-51">
          <mxGeometry relative="1" as="geometry">
            <Array as="points">
              <mxPoint x="460.08" y="430" />
              <mxPoint x="460.08" y="370" />
              <mxPoint x="390.08" y="370" />
            </Array>
          </mxGeometry>
        </mxCell>
        <mxCell id="bVHgUO8VpeUaKPs4COCc-53" value="&lt;div&gt;NEIN&lt;/div&gt;&lt;div&gt;(LOW)&lt;/div&gt;" style="edgeLabel;html=1;align=center;verticalAlign=middle;resizable=0;points=[];" vertex="1" connectable="0" parent="bVHgUO8VpeUaKPs4COCc-52">
          <mxGeometry x="-0.3926" y="4" relative="1" as="geometry">
            <mxPoint x="24" as="offset" />
          </mxGeometry>
        </mxCell>
        <mxCell id="bVHgUO8VpeUaKPs4COCc-54" value="press_count = 0" style="rounded=1;whiteSpace=wrap;html=1;fontSize=12;glass=0;strokeWidth=1;shadow=0;" vertex="1" parent="WIyWlLk6GJQsqaUBKTNV-1">
          <mxGeometry x="330.02" y="170" width="120" height="40" as="geometry" />
        </mxCell>
        <mxCell id="bVHgUO8VpeUaKPs4COCc-67" style="edgeStyle=orthogonalEdgeStyle;rounded=0;orthogonalLoop=1;jettySize=auto;html=1;exitX=0.5;exitY=1;exitDx=0;exitDy=0;entryX=0.5;entryY=0;entryDx=0;entryDy=0;" edge="1" parent="WIyWlLk6GJQsqaUBKTNV-1" source="bVHgUO8VpeUaKPs4COCc-56" target="bVHgUO8VpeUaKPs4COCc-66">
          <mxGeometry relative="1" as="geometry" />
        </mxCell>
        <mxCell id="bVHgUO8VpeUaKPs4COCc-56" value="press_count++" style="rounded=1;whiteSpace=wrap;html=1;fontSize=12;glass=0;strokeWidth=1;shadow=0;" vertex="1" parent="WIyWlLk6GJQsqaUBKTNV-1">
          <mxGeometry x="330.2" y="520" width="120" height="40" as="geometry" />
        </mxCell>
        <mxCell id="bVHgUO8VpeUaKPs4COCc-68" style="edgeStyle=orthogonalEdgeStyle;rounded=0;orthogonalLoop=1;jettySize=auto;html=1;exitX=1;exitY=0.5;exitDx=0;exitDy=0;entryX=0.5;entryY=0;entryDx=0;entryDy=0;" edge="1" parent="WIyWlLk6GJQsqaUBKTNV-1" source="bVHgUO8VpeUaKPs4COCc-66" target="bVHgUO8VpeUaKPs4COCc-45">
          <mxGeometry relative="1" as="geometry">
            <Array as="points">
              <mxPoint x="530.14" y="630" />
              <mxPoint x="530.14" y="230" />
              <mxPoint x="390.14" y="230" />
            </Array>
          </mxGeometry>
        </mxCell>
        <mxCell id="bVHgUO8VpeUaKPs4COCc-69" value="NEIN" style="edgeLabel;html=1;align=center;verticalAlign=middle;resizable=0;points=[];" vertex="1" connectable="0" parent="bVHgUO8VpeUaKPs4COCc-68">
          <mxGeometry x="-0.9446" y="2" relative="1" as="geometry">
            <mxPoint x="2" y="-8" as="offset" />
          </mxGeometry>
        </mxCell>
        <mxCell id="bVHgUO8VpeUaKPs4COCc-70" style="edgeStyle=orthogonalEdgeStyle;rounded=0;orthogonalLoop=1;jettySize=auto;html=1;exitX=0.5;exitY=1;exitDx=0;exitDy=0;entryX=0.5;entryY=0;entryDx=0;entryDy=0;" edge="1" parent="WIyWlLk6GJQsqaUBKTNV-1" source="bVHgUO8VpeUaKPs4COCc-66" target="bVHgUO8VpeUaKPs4COCc-46">
          <mxGeometry relative="1" as="geometry" />
        </mxCell>
        <mxCell id="bVHgUO8VpeUaKPs4COCc-83" value="JA (nur wenn gerade soll die LED blinken)" style="edgeLabel;html=1;align=center;verticalAlign=middle;resizable=0;points=[];" vertex="1" connectable="0" parent="bVHgUO8VpeUaKPs4COCc-70">
          <mxGeometry x="-0.2167" relative="1" as="geometry">
            <mxPoint x="110" y="-5" as="offset" />
          </mxGeometry>
        </mxCell>
        <mxCell id="bVHgUO8VpeUaKPs4COCc-66" value="&lt;div&gt;press_count&lt;/div&gt;&lt;div&gt;= gerade?&lt;/div&gt;" style="rhombus;whiteSpace=wrap;html=1;shadow=0;fontFamily=Helvetica;fontSize=12;align=center;strokeWidth=1;spacing=6;spacingTop=-4;" vertex="1" parent="WIyWlLk6GJQsqaUBKTNV-1">
          <mxGeometry x="329.9" y="590" width="120.24" height="80" as="geometry" />
        </mxCell>
        <mxCell id="bVHgUO8VpeUaKPs4COCc-77" style="edgeStyle=orthogonalEdgeStyle;rounded=0;orthogonalLoop=1;jettySize=auto;html=1;exitX=0.5;exitY=1;exitDx=0;exitDy=0;entryX=0;entryY=0.5;entryDx=0;entryDy=0;" edge="1" source="bVHgUO8VpeUaKPs4COCc-79" parent="WIyWlLk6GJQsqaUBKTNV-1" target="bVHgUO8VpeUaKPs4COCc-51">
          <mxGeometry relative="1" as="geometry">
            <mxPoint x="390.13999999999993" y="990" as="targetPoint" />
            <Array as="points">
              <mxPoint x="390.14" y="956" />
              <mxPoint x="280.14" y="956" />
              <mxPoint x="280.14" y="430" />
            </Array>
          </mxGeometry>
        </mxCell>
        <mxCell id="bVHgUO8VpeUaKPs4COCc-78" value="&lt;div&gt;JA&lt;/div&gt;&lt;div&gt;(LOW)&lt;br&gt;&lt;/div&gt;" style="edgeLabel;html=1;align=center;verticalAlign=middle;resizable=0;points=[];" vertex="1" connectable="0" parent="bVHgUO8VpeUaKPs4COCc-77">
          <mxGeometry x="-0.448" y="-1" relative="1" as="geometry">
            <mxPoint x="79" y="48" as="offset" />
          </mxGeometry>
        </mxCell>
        <mxCell id="bVHgUO8VpeUaKPs4COCc-79" value="Taster gedrückt?" style="rhombus;whiteSpace=wrap;html=1;shadow=0;fontFamily=Helvetica;fontSize=12;align=center;strokeWidth=1;spacing=6;spacingTop=-4;" vertex="1" parent="WIyWlLk6GJQsqaUBKTNV-1">
          <mxGeometry x="340.02000000000004" y="856" width="100" height="80" as="geometry" />
        </mxCell>
        <mxCell id="bVHgUO8VpeUaKPs4COCc-80" style="edgeStyle=orthogonalEdgeStyle;rounded=0;orthogonalLoop=1;jettySize=auto;html=1;exitX=1;exitY=0.5;exitDx=0;exitDy=0;entryX=0.5;entryY=0;entryDx=0;entryDy=0;" edge="1" source="bVHgUO8VpeUaKPs4COCc-79" target="bVHgUO8VpeUaKPs4COCc-46" parent="WIyWlLk6GJQsqaUBKTNV-1">
          <mxGeometry relative="1" as="geometry">
            <mxPoint x="425.1999999999999" y="703" as="targetPoint" />
            <mxPoint x="475.1999999999999" y="889" as="sourcePoint" />
            <Array as="points">
              <mxPoint x="525.14" y="896" />
              <mxPoint x="525.14" y="703" />
              <mxPoint x="390.14" y="703" />
            </Array>
          </mxGeometry>
        </mxCell>
        <mxCell id="bVHgUO8VpeUaKPs4COCc-81" value="&lt;div&gt;Nein&lt;/div&gt;&lt;div&gt;(HIGH)&lt;br&gt;&lt;/div&gt;" style="edgeLabel;html=1;align=center;verticalAlign=middle;resizable=0;points=[];" vertex="1" connectable="0" parent="bVHgUO8VpeUaKPs4COCc-80">
          <mxGeometry x="-0.8209" y="-8" relative="1" as="geometry">
            <mxPoint x="-18" y="-24" as="offset" />
          </mxGeometry>
        </mxCell>
        <mxCell id="bVHgUO8VpeUaKPs4COCc-85" style="edgeStyle=orthogonalEdgeStyle;rounded=0;orthogonalLoop=1;jettySize=auto;html=1;exitX=0.5;exitY=1;exitDx=0;exitDy=0;entryX=0.5;entryY=0;entryDx=0;entryDy=0;" edge="1" parent="WIyWlLk6GJQsqaUBKTNV-1" source="bVHgUO8VpeUaKPs4COCc-82" target="bVHgUO8VpeUaKPs4COCc-79">
          <mxGeometry relative="1" as="geometry" />
        </mxCell>
        <mxCell id="bVHgUO8VpeUaKPs4COCc-82" value="1 Sekunde warten" style="rounded=1;whiteSpace=wrap;html=1;fontSize=12;glass=0;strokeWidth=1;shadow=0;" vertex="1" parent="WIyWlLk6GJQsqaUBKTNV-1">
          <mxGeometry x="329.9" y="776" width="120" height="40" as="geometry" />
        </mxCell>
        <mxCell id="bVHgUO8VpeUaKPs4COCc-86" value="&lt;div&gt;Start&lt;/div&gt;" style="ellipse;whiteSpace=wrap;html=1;" vertex="1" parent="WIyWlLk6GJQsqaUBKTNV-1">
          <mxGeometry x="349.94" y="1250" width="50" height="50" as="geometry" />
        </mxCell>
        <mxCell id="bVHgUO8VpeUaKPs4COCc-87" value="&lt;b&gt;Button debounced Beispiel&lt;br&gt;&lt;/b&gt;" style="text;html=1;align=center;verticalAlign=middle;resizable=0;points=[];autosize=1;strokeColor=none;fillColor=none;" vertex="1" parent="WIyWlLk6GJQsqaUBKTNV-1">
          <mxGeometry x="415.08" y="1260" width="170" height="30" as="geometry" />
        </mxCell>
      </root>
    </mxGraphModel>
  </diagram>
</mxfile>
